<svg xmlns="http://www.w3.org/2000/svg" width="72" height="72"><radialGradient id="b" cx="56.893%" cy="76.157%" r="267%"><stop offset=".19" stop-color="#fff"/><stop offset=".8" stop-color="#fff" stop-opacity="0"/></radialGradient><mask id="a" fill="#fff"><circle cx="36" cy="36" r="36" fill-rule="evenodd"/></mask><g fill="none" fill-rule="evenodd"><circle cx="36" cy="36" r="36" fill="#f8f8f8"/><g mask="url(#a)"><g transform="translate(0 12)"><path fill="#6892bc" d="M47.807 85.454c.33-.017 1.753 0 2.74.007a2.12 2.12 0 0 0 1.416-.515.768.768 0 0 0 .078-.078c.13-.153.275-.294.432-.42 7.18-5.523 5.625-12.11 5.625-16.554 0-4.89-3.706-25.847-4.3-29.505-.072-.439-.147-.757-.225-.93-.639-1.403-9.889-2.839-17.933-3.298a96.93 96.93 0 0 0-2.63-.117c-.27-.008-.537-.014-.8-.02-4.7-.096-11.204.391-13.788 3.652C15.84 40.937 13.898 48.11 15.19 57.5c1.259 9.145 1.862 23.858-.233 26.787 3.358 1.006 6.908 1.527 10.5 1.59 4.489.08 11.34.09 19.107-.166z"/><path fill="#6892bc" d="M62.253 45.801c12.37 15.515-21.093 11.084-30.947 24.784C19.549 86.93.366 89.426.366 72.068S9.7 28.195 33.264 28.195c16.809 0 16.586 2.048 28.99 17.606z"/><path fill="#6892bc" d="M21.941 35.32C16.72 36.364 10.54 42.586 9.376 47.412c-1.163 4.825-3.618 13.302-5.298 17.084-1.68 3.781-2.972 14.48 3.49 15.129 6.463.648 10.471-9.13 10.859-12.651s2.775-14.344 2.905-17.215c.13-2.87 7.459-15.81.61-14.44z"/><path fill="url(#b)" d="M17.14 44.49a.494.494 0 0 1 .066-.336l-.066.335z"/><path fill="#e88068" fill-rule="nonzero" d="M35.549 13.172c-.835-.008-1.417-.71-1.48-.79a.543.543 0 0 1 .089-.747.532.532 0 0 1 .743.07c.084.102.388.382.668.39.174 0 .357-.123.543-.361a.533.533 0 0 1 .93.126c.07.184.036.39-.09.542-.496.636-1.025.771-1.38.774zm-8.697.61a.532.532 0 0 1-.425-.22c-.25-.342-.477-.45-.478-.45a.54.54 0 0 1-.2-1.06c.132-.027.83-.104 1.54.871.12.165.138.384.045.567a.535.535 0 0 1-.482.294z"/><path fill="#010101" d="M30.368 25.194s10.584 1.918 11.298 4.439c.714 2.52.249.751.249.751l.155-1.061.088-7.852s-7.92 4.644-11.79 3.723z"/><path fill="#9cbce2" d="M34.664 36.414c-4.305-.042-7.768-2.885-7.736-6.35l.116-12.174c.033-3.465 3.55-6.24 7.855-6.199s7.768 2.884 7.736 6.35l-.116 12.173c-.032 3.466-3.549 6.241-7.855 6.2z"/><path fill="#6892bc" d="m42.52 30.53.009-1.134.088-7.586s-3.025 5.993-12.41 2.87c0 0 9.242 1.072 12.312 5.85"/><path fill="#98b5d3" d="M41.897 11.112c1.98-.61 3.685 1.606 2.505 3.3-.031.045-.064.09-.099.135-1.387 1.8-3.358.725-3.358.725"/><path fill="#9cbce2" d="m27.109 18.219.094-9.852a8.153 8.153 0 0 1 8.23-8.076h.002a8.156 8.156 0 0 1 8.077 8.234l-.094 9.852a8.153 8.153 0 0 1-8.23 8.075h-.002a8.156 8.156 0 0 1-8.077-8.233z"/><path fill="#6892bc" d="M38.692 17.101a1.376 1.376 0 0 1-1.175-.7 2.657 2.657 0 0 1-.279-.783.181.181 0 0 1 .052-.178.177.177 0 0 1 .297.106c.044.237.125.466.24.678.144.255.389.436.674.497.265.06.544 0 .763-.162.354-.264.444-.595.376-.806l-.026-.089a13.13 13.13 0 0 1-.5-3.722l.017-1.837a.18.18 0 0 1 .088-.165.177.177 0 0 1 .185.003.18.18 0 0 1 .083.166l-.017 1.836a12.747 12.747 0 0 0 .487 3.62l.023.078c.098.307.025.808-.504 1.203-.227.17-.502.259-.784.255z"/><path fill="#9cbce2" d="M27.343 10.68c-1.968-.65-3.715 1.534-2.567 3.251.03.046.063.091.096.137 1.354 1.83 3.344.79 3.344.79"/><path fill="#6892bc" d="M27.305 7.153s-.073 1.303 1.297 2.454c.677.569 1.08 1.306 1.086 2.086 0 .357-.032.714-.093 1.066-.061.372-.465.65-.94.645h-.12c-.476-.005-.853-.33-.808-.705.086-.795-.058-2.097-.465-2.084-.85.02.043-3.462.043-3.462z"/><path fill="#6892bc" d="M37.138 5.708c-.403-.004-.86-.173-1.319-.664-1.148-1.227-2.209-.08-2.254-.031-.073.074-.181.064-.245-.022a.255.255 0 0 1 .007-.302c.013-.014 1.343-1.452 2.727.028 1.148 1.227 2.21.08 2.25.031.007-.01.436-.569 1.074-.596.419-.018.82.19 1.197.622.07.083.072.218.005.305-.066.087-.176.093-.249.014-.305-.349-.625-.52-.94-.504-.492.022-.833.465-.837.469-.015.018-.611.66-1.416.65z" opacity=".46"/><path fill="#6892bc" d="M37.203 4.95c-.74-.014-1.356-.82-1.364-.833-.076-.108-.09-.307-.034-.45.056-.142.164-.177.243-.08.048.065 1.181 1.538 2.083.062.047-.083.115-.113.177-.076.063.036.11.132.122.25a.504.504 0 0 1-.062.314c-.317.535-.734.826-1.165.813z" opacity=".46"/><path fill="#6892bc" fill-rule="nonzero" d="M33.245 10.374a.535.535 0 0 1-.48-.32.544.544 0 0 1 .085-.576c.07-.078 1.745-1.965 4.417-1.112a.54.54 0 0 1 .332.672.534.534 0 0 1-.655.357 3.18 3.18 0 0 0-3.29.795.531.531 0 0 1-.409.184zm10.315.241a.528.528 0 0 1-.38-.176 3.162 3.162 0 0 0-3.244-.979.541.541 0 0 1-.338-1.024c.101-.033 2.488-.814 4.373 1.277.2.22.184.56-.035.762a.526.526 0 0 1-.375.14zM26.857 13.33a.18.18 0 0 1-.143-.074c-.459-.63-.827-.59-.831-.591a.176.176 0 0 1-.209-.143.18.18 0 0 1 .142-.21c.06-.012.59-.087 1.186.732a.181.181 0 0 1-.145.286zm11.357 6.944a5.664 5.664 0 0 1-3.159-1.031 1.267 1.267 0 0 1-.227-1.746 1.24 1.24 0 0 1 1.724-.269c.176.127 1.687 1.148 3.46-.066a1.241 1.241 0 0 1 1.718.345c.383.57.242 1.344-.317 1.739-1.146.784-2.246 1.037-3.2 1.028z"/><ellipse cx="33.968" cy="15.04" fill="#b2d2ee" rx="1.357" ry="1.37"/><ellipse cx="42.016" cy="15.21" fill="#b2d2ee" rx="1.357" ry="1.37"/><path fill="#6892bc" d="m50.866 32.287 6.558 6.46a28.09 28.09 0 0 1 3.659 4.412c5.106 7.648 7.072 16.998 6.825 26.355a51.7 51.7 0 0 1-.026.787c-.443 10.517-12.875 11.768-12.875 11.768S41.692 70.15 41.242 60.836c0 0 5.061-1.8 6.401-6.159 1.34-4.358 5.806-2.103 5.806-2.103l-4.836-21.917z"/><circle cx="35.437" cy="12.078" r="1" fill="#6892bc"/><circle cx="40.893" cy="12.118" r="1" fill="#6892bc"/></g></g></g></svg>