<svg width="56" height="56" fill="none" xmlns="http://www.w3.org/2000/svg">
    <g clip-path="url(#a)">
        <path d="M44.875 39.595V16.403c2.177-.776 3.75-2.837 3.75-5.278A5.63 5.63 0 0 0 43 5.5a5.63 5.63 0 0 0-5.625 5.625c0 2.441 1.573 4.502 3.75 5.278v9.722h-11.25v-9.722c2.177-.776 3.75-2.837 3.75-5.278A5.63 5.63 0 0 0 28 5.5a5.63 5.63 0 0 0-5.625 5.625c0 2.441 1.573 4.502 3.75 5.278v9.722h-11.25v-9.722c2.177-.776 3.75-2.837 3.75-5.278A5.63 5.63 0 0 0 13 5.5a5.63 5.63 0 0 0-5.625 5.625c0 2.441 1.573 4.502 3.75 5.278V28c0 1.035.838 1.875 1.875 1.875h13.125v9.72c-2.177.776-3.75 2.839-3.75 5.28A5.632 5.632 0 0 0 28 50.5a5.632 5.632 0 0 0 5.625-5.625c0-2.441-1.573-4.504-3.75-5.28v-9.72h11.25v9.72c-2.177.776-3.75 2.839-3.75 5.28A5.632 5.632 0 0 0 43 50.5a5.632 5.632 0 0 0 5.625-5.625c0-2.441-1.573-4.504-3.75-5.28Z" fill="#000"/>
    </g>
    <defs>
        <clipPath id="a">
            <path fill="#fff" transform="translate(5.5 5.5)" d="M0 0h45v45H0z"/>
        </clipPath>
    </defs>
</svg>
