<svg width="56" height="56" fill="none" xmlns="http://www.w3.org/2000/svg">
    <g clip-path="url(#a)">
        <path d="M36.491 21.71 49.932 8.352l-.044 7.572c-.014.631.487 1.18 1.119 1.166h.802c.632-.015 1.154-.391 1.168-1.022l.032-11.28c0-.01-.043-.02-.043-.03l.062-.572c.006-.317-.068-.6-.273-.802a1.08 1.08 0 0 0-.8-.32l-.571.013c-.011 0-.02.004-.032.006l-11.205-.05a1.205 1.205 0 0 0-1.168 1.169l-.002.801c.097.745.682 1.18 1.313 1.166l7.385.02L34.282 19.5a1.563 1.563 0 0 0 2.21 2.21ZM19.557 34.29 6.117 47.606l.042-7.53c.015-.632-.486-1.182-1.118-1.168l-.85.002c-.633.016-1.155.39-1.168 1.023l-.033 11.28c0 .01.043.017.043.03l-.062.57c-.007.317.067.602.273.802.201.205.486.329.8.32l.572-.013c.01 0 .018-.005.03-.005l11.255.05a1.208 1.208 0 0 0 1.169-1.17l.001-.802c-.096-.743-.681-1.18-1.313-1.165l-7.385-.02L21.766 36.5a1.562 1.562 0 0 0-2.209-2.21ZM53.01 51.212l-.033-11.28c-.014-.632-.536-1.007-1.167-1.023l-.802-.002c-.632-.014-1.132.536-1.119 1.168l.044 7.572-13.441-13.358a1.562 1.562 0 0 0-2.21 2.21l13.392 13.31-7.384.02c-.631-.014-1.216.422-1.313 1.165l.002.803a1.207 1.207 0 0 0 1.168 1.168l11.206-.049c.012 0 .02.005.032.005l.57.014c.315.008.6-.116.801-.32.205-.202.279-.486.273-.803l-.062-.57c0-.013.043-.02.043-.03ZM8.373 6.19l7.386-.02c.632.014 1.217-.422 1.313-1.166l-.002-.802a1.206 1.206 0 0 0-1.168-1.168l-11.255.049c-.013-.002-.02-.006-.031-.006l-.572-.013c-.314-.009-.6.116-.8.32-.206.202-.28.485-.273.802l.062.572c0 .01-.043.018-.043.03l.033 11.28c.014.631.536 1.007 1.168 1.022h.85c.632.014 1.132-.535 1.118-1.166l-.043-7.53L19.557 21.71a1.562 1.562 0 1 0 2.21-2.21L8.373 6.19Z" fill="#000"/>
    </g>
    <defs>
        <clipPath id="a">
            <path fill="#fff" transform="translate(3 3)" d="M0 0h50v50H0z"/>
        </clipPath>
    </defs>
</svg>
