<svg width="56" height="56" fill="none" xmlns="http://www.w3.org/2000/svg">
    <path d="M14.125 51.125h27.75a6.938 6.938 0 0 0 6.938-6.938v-27.75a4.625 4.625 0 0 0-4.626-4.625h-4.624V7.189a2.312 2.312 0 1 0-4.626 0v4.625H21.063V7.186a2.312 2.312 0 1 0-4.625 0v4.625h-4.625a4.625 4.625 0 0 0-4.626 4.626v27.75a6.937 6.937 0 0 0 6.938 6.937Zm-2.313-21.969A1.156 1.156 0 0 1 12.97 28H43.03a1.156 1.156 0 0 1 1.157 1.156v15.032a2.312 2.312 0 0 1-2.313 2.312h-27.75a2.312 2.312 0 0 1-2.313-2.313v-15.03Z" fill="#000"/>
</svg>
