<svg width="56" height="56" fill="none" xmlns="http://www.w3.org/2000/svg">
    <path d="M44.667 28V11.333a2.083 2.083 0 0 0-4.167 0V15.5h-25v-4.167a2.083 2.083 0 0 0-4.167 0V28a4.167 4.167 0 0 0-4.166 4.167v12.5a2.083 2.083 0 0 0 4.166 0V40.5h33.334v4.167a2.083 2.083 0 1 0 4.166 0v-12.5A4.167 4.167 0 0 0 44.667 28Zm-12.5-4.167h6.25a2.083 2.083 0 0 1 2.083 2.084V28H30.083v-2.083a2.083 2.083 0 0 1 2.084-2.084ZM15.5 25.917a2.083 2.083 0 0 1 2.083-2.084h6.25a2.083 2.083 0 0 1 2.084 2.084V28H15.5v-2.083Z" fill="#000"/>
</svg>
