<svg width="56" height="56" fill="none" xmlns="http://www.w3.org/2000/svg">
    <path d="M46.75 28H15.5V15.5a4.167 4.167 0 0 1 4.167-4.167h4.166a4.167 4.167 0 0 1 3.865 2.627 6.973 6.973 0 0 0-3.865 6.332v1.366a2.129 2.129 0 0 0 2.084 2.175h8.333a2.13 2.13 0 0 0 2.083-2.17v-1.736a6.459 6.459 0 0 0-4.36-6.18 8.333 8.333 0 0 0-8.14-6.58h-4.166a8.333 8.333 0 0 0-8.334 8.333V28H9.25a2.083 2.083 0 0 0 0 4.167h2.083v6.25a4.167 4.167 0 0 0 4.167 4.166v4.167a2.083 2.083 0 1 0 4.167 0v-4.167h16.666v4.167a2.083 2.083 0 1 0 4.167 0v-4.167a4.167 4.167 0 0 0 4.167-4.166v-6.25h2.083a2.083 2.083 0 0 0 0-4.167Z" fill="#000"/>
</svg>
