<svg width="56" height="56" fill="none" xmlns="http://www.w3.org/2000/svg">
    <g clip-path="url(#a)">
        <path fill-rule="evenodd" clip-rule="evenodd" d="M47.6 18.667c1.546 0 2.8 1.254 2.8 2.8V47.6c0 1.542-1.253 2.8-2.8 2.8H34.533c-1.547 0-2.8-1.26-2.8-2.8V21.467c0-1.544 1.257-2.8 2.8-2.8H47.6ZM30.918 50.4H20.533c.521-5.398 2.91-4.96 3.935-7.467h5.399V47.6c0 .978.34 2.193 1.05 2.8Zm-12.251 0H11.2c-.33-3.72-1.245-5.094-2.638-6.362a8.99 8.99 0 0 1-.004-13.34c1.397-1.268 2.326-2.754 2.642-6.431h7.467c.377 3.677 1.088 5.163 2.486 6.432a9.012 9.012 0 0 1 2.882 5.546H25.2v2.177h-1.154a9.017 9.017 0 0 1-2.897 5.616c-1.394 1.268-2.195 2.597-2.482 6.362Zm22.4-1.867a1.866 1.866 0 1 1-.001-3.732 1.866 1.866 0 0 1 0 3.732Zm-26.134-4.666a6.533 6.533 0 1 1 0-13.067 6.533 6.533 0 0 1 0 13.067Zm33.6-.934V24.222H33.6v18.711h14.933ZM42 20.533h-1.867a.934.934 0 0 0 0 1.867H42a.935.935 0 0 0 .933-.933.935.935 0 0 0-.933-.934ZM14.933 22.4H11.2V9.333A3.735 3.735 0 0 1 14.933 5.6h28a3.735 3.735 0 0 1 3.734 3.733V16.8h-3.734v-5.6h-28v11.2Z" fill="#00C160"/>
        <path d="M13.067 39.2h5.6v-1.867h-3.734V33.6h-1.866v5.6Z" fill="#00C160"/>
        <path d="M13.067 39.2h5.6v-1.867h-3.734V33.6h-1.866v5.6Z" fill="#9CD6B1"/>
    </g>
    <defs>
        <clipPath id="a">
            <path fill="#fff" transform="translate(5.6 5.6)" d="M0 0h44.8v44.8H0z"/>
        </clipPath>
    </defs>
</svg>
