<svg width="56" height="56" fill="none" xmlns="http://www.w3.org/2000/svg">
    <g clip-path="url(#a)">
        <path fill-rule="evenodd" clip-rule="evenodd" d="M28.565 12.351a90.94 90.94 0 0 0-.8-.003c-3.331 0-5.72.161-8.36.654-1.75.326-2.498.908-3.924 3.385-1.701 2.949-3.32 6.073-4.677 8.693l-.372.719c-1.101 2.125-1.63 4.035-1.63 6.569 0 2.455.684 4.54 1.732 7.134v3.31c0 .989.772 1.792 1.723 1.792h2.584c.952 0 1.723-.803 1.723-1.792V41.02h22.4v1.792c0 .989.772 1.792 1.724 1.792h2.584c.951 0 1.723-.803 1.723-1.792v-3.31c1.048-2.595 1.732-4.679 1.732-7.134 0-2.489-.51-4.376-1.571-6.456a10.836 10.836 0 0 1-5.968 1.79c-3.284 0-6.238-1.47-8.287-3.812a95.468 95.468 0 0 1-3.136.052c-4.536 0-9.135-.33-11.96-.89 0 0 1.275-3.275 2.81-5.631a2.287 2.287 0 0 1 1.497-1.014c2.604-.488 4.885-.644 7.653-.644h.226c.028-1.19.228-2.336.574-3.412ZM14.841 28.476c1.427 0 2.585 1.204 2.585 2.688 0 1.483-1.158 2.688-2.585 2.688-1.426 0-2.584-1.204-2.584-2.688 0-1.484 1.158-2.688 2.584-2.688Zm18.954 3.584c.476 0 .862.401.862.896 0 .494-.386.896-.862.896H21.734c-.476 0-.862-.402-.862-.896 0-.495.386-.896.862-.896h12.061Zm6.892-3.584c1.427 0 2.585 1.204 2.585 2.688 0 1.483-1.158 2.688-2.584 2.688-1.427 0-2.585-1.204-2.585-2.688 0-1.484 1.158-2.688 2.584-2.688ZM7.95 19.516h3.794L9.872 23.1c-1.189 0-2.784-.352-2.784-1.773v-.915c0-.495.385-.896.861-.896Z" fill="#FF4353"/>
    </g>
    <path d="M39.45 6.654c4.853 0 8.829 4.098 8.829 9.207 0 5.109-3.976 9.207-8.829 9.207-4.853 0-8.829-4.098-8.829-9.207 0-5.109 3.976-9.207 8.83-9.207Z" fill="#fff" stroke="#FF4C59" stroke-width="1.267"/>
    <g clip-path="url(#b)">
        <path d="M39.91 10.792a.458.458 0 0 0-.835 0l-1.29 2.873-3.13.338a.458.458 0 0 0-.258.794l2.334 2.114-.646 3.081a.458.458 0 0 0 .676.491l2.731-1.566 2.731 1.566a.458.458 0 0 0 .676-.49l-.645-3.082 2.333-2.114a.458.458 0 0 0-.258-.794l-3.13-.338-1.29-2.873Z" fill="#FF4353"/>
    </g>
    <defs>
        <clipPath id="a">
            <path fill="#fff" transform="translate(7.088 6.972)" d="M0 0h41.354v43.008H0z"/>
        </clipPath>
        <clipPath id="b">
            <path fill="#fff" transform="translate(34 10.064)" d="M0 0h10.983v10.983H0z"/>
        </clipPath>
    </defs>
</svg>
