<svg width="56" height="56" viewBox="0 0 56 56" fill="none" xmlns="http://www.w3.org/2000/svg">
<g clip-path="url(#clip0_1505_16946)">
<mask id="mask0_1505_16946" style="mask-type:luminance" maskUnits="userSpaceOnUse" x="5" y="5" width="46" height="46">
<path d="M50.5 5.5H5.5V50.5H50.5V5.5Z" fill="white"/>
</mask>
<g mask="url(#mask0_1505_16946)">
<path d="M50.1023 28.7763L40.9947 19.6681V13.6625C40.9947 12.9137 40.3883 12.3066 39.6395 12.3066C38.8907 12.3066 38.2843 12.9137 38.2843 13.6625V16.9596L31.8588 10.5341C31.3302 10.0042 30.472 10.0042 29.9427 10.5341L20.4014 20.0748C19.8721 20.6041 19.8721 21.4617 20.4014 21.991C20.9307 22.5203 21.7882 22.5203 22.3169 21.991L30.8998 13.4081L48.1868 30.6932C48.4492 30.9562 48.7972 31.09 49.1432 31.09C49.4893 31.09 49.8373 30.9588 50.101 30.6932C50.6323 30.1632 50.6323 29.3056 50.1023 28.7763Z" fill="#009AFA"/>
<path d="M46.2257 30.3336L31.8587 15.9652C31.6043 15.7108 31.2602 15.5684 30.901 15.5684C30.5417 15.5684 30.1983 15.7108 29.9432 15.9652L22.5969 23.3116C22.6193 23.3109 22.6411 23.3056 22.6635 23.3056C23.0761 23.3056 23.4782 23.4243 23.8243 23.6471C24.3727 23.9997 24.7273 24.5745 24.7972 25.2244L24.8011 25.2561L24.9059 25.2541C25.5321 25.2541 26.1247 25.523 26.5327 25.9943C26.9592 26.488 27.1372 27.1386 27.0218 27.7813L27.0159 27.8129L27.0462 27.8208C27.679 27.981 28.1971 28.4134 28.4687 29.008C28.7389 29.6019 28.729 30.2782 28.4351 30.8615L28.4212 30.8899L28.4482 30.905C28.8464 31.139 29.1483 31.4937 29.3236 31.9076C29.7204 31.4653 30.2735 31.1674 30.9029 31.1074C32.1402 31.2254 33.0979 32.2688 33.0979 33.5193V38.6686C33.0979 39.4945 33.4084 40.2835 33.97 40.8919C34.5883 41.5597 35.4656 41.9433 36.3733 41.9433H43.3874C45.1922 41.9433 46.6627 40.474 46.6627 38.6693V31.6558C46.6614 31.4508 46.6416 31.2419 46.6021 31.0349C46.5474 30.7673 46.4175 30.5247 46.2257 30.3336Z" fill="#009AFA"/>
<path d="M28.5281 32.5824C28.4767 32.2271 28.2671 31.9127 27.9593 31.7301L27.1624 31.2575L27.5776 30.4296C27.7385 30.1092 27.7451 29.7309 27.5948 29.4039C27.4445 29.0783 27.1571 28.8371 26.8104 28.7474L25.9126 28.5194L26.0781 27.6071C26.142 27.2538 26.0418 26.8906 25.8078 26.619C25.5731 26.3487 25.2277 26.1985 24.8678 26.2116L23.9424 26.2446L23.8442 25.3244C23.8059 24.9672 23.6089 24.6475 23.3063 24.4524C23.0044 24.2579 22.6313 24.2131 22.2899 24.3265L21.4112 24.6198L21.0566 23.7622C20.9195 23.4307 20.6394 23.1789 20.2953 23.078C19.9512 22.9778 19.5794 23.0371 19.2848 23.2421L18.5241 23.7721L17.9434 23.0497C17.7173 22.7695 17.3785 22.6074 17.0199 22.6074C16.66 22.6074 16.3212 22.7695 16.0964 23.0497L15.5151 23.7714L14.7544 23.2421C14.4604 23.0365 14.088 22.9778 13.7446 23.078C13.3998 23.1789 13.119 23.4307 12.9826 23.7622L12.6286 24.6198L11.7506 24.3265C11.4092 24.2131 11.0354 24.2586 10.7342 24.4524C10.4316 24.6475 10.2346 24.9672 10.1963 25.3244L10.0981 26.2446L9.17132 26.2116C8.81537 26.2018 8.468 26.3494 8.23202 26.619C7.99802 26.8906 7.89717 27.2538 7.96242 27.6071L8.12721 28.52L7.2301 28.7481C6.88207 28.8371 6.5927 29.0783 6.44373 29.4046C6.29476 29.7309 6.30201 30.1059 6.46218 30.4296L6.87811 31.2575L6.07987 31.7301C5.77139 31.9127 5.56177 32.2258 5.51168 32.5811C5.46026 32.9364 5.57364 33.2956 5.81753 33.5573L6.44966 34.2342L5.81753 34.9112C5.57364 35.1722 5.46026 35.5321 5.51168 35.8874C5.56177 36.2427 5.77205 36.5565 6.07987 36.7384L6.87811 37.2103L6.46218 38.0402C6.30135 38.3606 6.29476 38.7396 6.44373 39.0659C6.59336 39.3908 6.88207 39.6314 7.2301 39.7204L8.12721 39.9511L7.96242 40.8627C7.89717 41.216 7.99802 41.5806 8.23202 41.8501C8.46734 42.1211 8.8134 42.272 9.17132 42.2588L10.0981 42.2245L10.1957 43.1447C10.2346 43.5013 10.4323 43.8217 10.7335 44.0161C11.0354 44.2099 11.4085 44.2561 11.75 44.1427L12.6286 43.85L12.9819 44.7063C13.119 45.0385 13.3998 45.2909 13.7439 45.3911C14.088 45.492 14.4571 45.432 14.7524 45.2277L15.5137 44.6984L16.0945 45.4201C16.3199 45.7003 16.6587 45.8624 17.0173 45.8624C17.3765 45.8624 17.7167 45.7003 17.9408 45.4201L18.5228 44.6984L19.2828 45.2277C19.5768 45.4327 19.9486 45.4907 20.2933 45.3918C20.6374 45.2909 20.9175 45.0398 21.0546 44.7069L21.4086 43.8507L22.2872 44.1427C22.6287 44.2574 23.0011 44.2106 23.3037 44.0161C23.6056 43.8223 23.804 43.5027 23.8409 43.146L23.9391 42.2259L24.8652 42.2601C25.2198 42.2733 25.5692 42.1224 25.8052 41.8515C26.0392 41.5819 26.1394 41.2174 26.0748 40.864L25.9093 39.9518L26.8071 39.7217C27.1551 39.6327 27.4445 39.3921 27.5928 39.0678C27.7411 38.7416 27.7345 38.3645 27.5743 38.0415L27.1591 37.2136L27.956 36.7404C28.2645 36.5584 28.4734 36.2447 28.5249 35.8894C28.5789 35.5348 28.4649 35.1755 28.221 34.9132L27.5888 34.2369L28.221 33.5593C28.4655 33.2956 28.5802 32.9364 28.5281 32.5824ZM8.63542 34.8288L7.95386 34.5164L9.49365 30.5232L10.0592 30.7783L8.63542 34.8288ZM18.1405 40.1825L10.5813 35.1432L11.2609 31.6576L14.7972 29.7019L15.4828 30.1336L13.6345 33.554C13.5086 33.7873 13.5837 34.0793 13.8072 34.225L15.3872 35.2408C15.5928 35.3713 15.8611 35.339 16.0292 35.1656L18.1794 32.9186L22.7974 36.9157L18.1405 40.1825ZM22.7579 35.5374L18.48 31.8323C18.4299 31.7914 18.3738 31.7598 18.3152 31.7374C18.2967 31.7294 18.2756 31.7308 18.2558 31.7255C18.2196 31.7169 18.184 31.7077 18.1471 31.7077C18.1418 31.7077 18.1359 31.709 18.1306 31.709C18.1247 31.7097 18.1181 31.711 18.1115 31.7117C18.0541 31.7156 17.9975 31.7268 17.9441 31.7525C17.9401 31.7538 17.9368 31.7565 17.9335 31.7578C17.8775 31.7835 17.8254 31.8204 17.7799 31.8659L15.5856 34.1591L14.7537 33.6239L16.4801 30.4263L18.6461 30.1389L22.5193 31.6991L23.3472 34.8275L22.7579 35.5374ZM25.1262 34.4327L23.5884 30.7078L24.2739 30.398L26.0174 34.1835L25.1262 34.4327Z" fill="#009AFA"/>
</g>
</g>
<defs>
<clipPath id="clip0_1505_16946">
<rect width="56" height="56" fill="white"/>
</clipPath>
</defs>
</svg>
