<svg width="56" height="56" fill="none" xmlns="http://www.w3.org/2000/svg">
    <g clip-path="url(#a)">
        <path d="M49.75 49H46V10h1.5a.75.75 0 0 0 .75-.75v-3a.75.75 0 0 0-.75-.75h-39a.75.75 0 0 0-.75.75v3c0 .414.336.75.75.75H10v39H6.25a.75.75 0 0 0 0 1.5h43.5a.75.75 0 0 0 0-1.5ZM26.5 42.25a.75.75 0 0 1-.75.75h-12a.75.75 0 0 1-.75-.75v-6a.75.75 0 0 1 .75-.75h12a.75.75 0 0 1 .75.75v6Zm0-12a.75.75 0 0 1-.75.75h-12a.75.75 0 0 1-.75-.75v-6a.75.75 0 0 1 .75-.75h12a.75.75 0 0 1 .75.75v6Zm0-10.5a.75.75 0 0 1-.75.75h-12a.75.75 0 0 1-.75-.75v-6a.75.75 0 0 1 .75-.75h12a.75.75 0 0 1 .75.75v6ZM41.5 49H40V37h-3v12h-1.5V37h-3v12H31V36.25a.75.75 0 0 1 .75-.75h9a.75.75 0 0 1 .75.75V49ZM43 30.25a.75.75 0 0 1-.75.75h-12a.75.75 0 0 1-.75-.75v-6a.75.75 0 0 1 .75-.75h12a.75.75 0 0 1 .75.75v6Zm0-10.5a.75.75 0 0 1-.75.75h-12a.75.75 0 0 1-.75-.75v-6a.75.75 0 0 1 .75-.75h12a.75.75 0 0 1 .75.75v6Z" fill="#009AFA"/>
        <path d="M25 14.5h-4.5V19H25v-4.5ZM25 37h-4.5v4.5H25V37ZM19 37h-4.5v4.5H19V37ZM41.5 14.5H37V19h4.5v-4.5ZM35.5 14.5H31V19h4.5v-4.5ZM19 14.5h-4.5V19H19v-4.5ZM25 25h-4.5v4.5H25V25ZM41.5 25H37v4.5h4.5V25ZM35.5 25H31v4.5h4.5V25ZM19 25h-4.5v4.5H19V25Z" fill="#9BD9FF"/>
    </g>
    <defs>
        <clipPath id="a">
            <path fill="#fff" transform="translate(5.5 5.5)" d="M0 0h45v45H0z"/>
        </clipPath>
    </defs>
</svg>
