<svg width="56" height="56" viewBox="0 0 56 56" fill="none" xmlns="http://www.w3.org/2000/svg">
<g clip-path="url(#clip0_1505_16922)">
<mask id="mask0_1505_16922" style="mask-type:luminance" maskUnits="userSpaceOnUse" x="5" y="5" width="46" height="46">
<path d="M50.6365 5.36328H5.36377V50.636H50.6365V5.36328Z" fill="white"/>
</mask>
<g mask="url(#mask0_1505_16922)">
<path d="M30.9471 13.603C26.1588 8.81462 18.3953 8.81462 13.6069 13.603C8.81854 18.3913 8.81854 26.1549 13.6069 30.9432C17.1481 34.4844 22.3133 35.4042 26.6976 33.7125L27.2053 33.5055L27.2427 33.4964H28.3937V36.4738C28.3937 37.6948 29.3217 38.6989 30.5106 38.8196L30.7517 38.8318H33.7292V41.8094C33.7292 43.0302 34.6571 44.0344 35.8461 44.1552L36.0872 44.1674H43.5999C44.5818 44.1674 45.3905 43.4243 45.4939 42.4699L45.5051 42.2623V37.3363C45.5051 36.6795 45.2769 36.0465 44.8643 35.543L44.6763 35.3354L34.3001 24.9591L34.2828 24.8888C34.2779 24.8499 34.2771 24.7973 34.2895 24.7363C35.0847 20.8429 33.9729 16.6288 30.9471 13.603ZM22.9438 18.9385C24.0489 20.0435 24.0489 21.8351 22.9438 22.9401C21.8388 24.0451 20.0471 24.0451 18.9423 22.9401C17.8373 21.8351 17.8373 20.0435 18.9423 18.9385C20.0471 17.8335 21.8388 17.8335 22.9438 18.9385Z" fill="#009AFA"/>
</g>
</g>
<defs>
<clipPath id="clip0_1505_16922">
<rect width="56" height="56" fill="white"/>
</clipPath>
</defs>
</svg>
