<svg width="56" height="56" fill="none" xmlns="http://www.w3.org/2000/svg">
    <g clip-path="url(#a)">
        <path d="M28.792 9.146h-.584c-.322 0-.583.531-.583 1.186v2.48l-5.95 3.488c-.616.36-.827 1.041-.472 1.52.355.478 1.141.573 1.757.213l5.798-3.398 5.448 3.61c.59.391 1.378.334 1.759-.129.38-.463.21-1.155-.381-1.546l-5.624-3.725V11.04c1.312-.425 2.252-1.545 2.252-2.857 0-1.676-1.534-3.04-3.42-3.04-1.425 0-2.65.78-3.162 1.884-.281.606.266 1.156.91 1.156.645 0 1.153-.385 1.486-.68a1.15 1.15 0 0 1 .766-.283c.598 0 1.085.432 1.085.963 0 .532-.487.964-1.085.964Z" fill="#9CD6B1"/>
    </g>
    <path fill-rule="evenodd" clip-rule="evenodd" d="M40.127 50.223c0 .322-.261.583-.583.583h-21.89a.583.583 0 0 1-.583-.583V27.478a.582.582 0 0 0-.843-.52l-2.054 1.025a.582.582 0 0 1-.693-.131L9.24 23.15a.583.583 0 0 1 .058-.836l9.419-7.912H38.48l9.424 7.964c.25.211.276.588.058.833l-4.238 4.744a.582.582 0 0 1-.707.127l-2.035-1.08a.582.582 0 0 0-.855.515v22.718ZM22.08 16.2a.612.612 0 0 0-.331-.402l-3.031-1.396H38.48l-3.03 1.395a.611.611 0 0 0-.331.405c-.695 2.684-3.007 5.026-6.52 5.026-3.51 0-5.823-2.415-6.519-5.028Z" fill="#00C160"/>
    <defs>
        <clipPath id="a">
            <path fill="#fff" transform="translate(19.238 1.92)" d="M0 0h18.722v16.642H0z"/>
        </clipPath>
    </defs>
</svg>
