<svg width="56" height="56" viewBox="0 0 56 56" fill="none" xmlns="http://www.w3.org/2000/svg">
<g clip-path="url(#clip0_147_13735)">
<g clip-path="url(#clip1_147_13735)">
<path d="M25.6283 17.0303C25.6278 16.4088 25.4438 15.8013 25.0992 15.2841C24.7547 14.7669 24.265 14.363 23.6917 14.1231C23.3258 12.0345 22.2351 10.1417 20.6115 8.77785C18.9879 7.41396 16.9354 6.66626 14.815 6.66626C12.6946 6.66626 10.642 7.41396 9.01845 8.77785C7.39487 10.1417 6.30421 12.0345 5.93832 14.1231C5.28406 14.3983 4.74177 14.8862 4.39913 15.5078C4.0565 16.1295 3.93355 16.8485 4.05018 17.5486C4.1668 18.2488 4.51617 18.8892 5.0418 19.3662C5.56743 19.8432 6.23859 20.1289 6.94674 20.1772C7.4122 21.165 8.04345 22.0657 8.8131 22.8402C7.68534 24.0716 6.96963 25.624 6.76561 27.2813C6.75084 27.3987 6.75936 27.518 6.79068 27.6321C6.82201 27.7463 6.87552 27.8532 6.94816 27.9467C7.0208 28.0401 7.11115 28.1184 7.21405 28.177C7.31694 28.2355 7.43036 28.2732 7.54783 28.2879C7.58492 28.2924 7.62223 28.2948 7.65958 28.2951C7.8789 28.2949 8.0906 28.2146 8.25501 28.0695C8.41941 27.9243 8.52524 27.7242 8.55266 27.5066C8.71604 26.2 9.28857 24.9786 10.1883 24.0172C11.5303 25.0078 13.1464 25.5578 14.8141 25.5916C16.4768 25.5575 18.0882 25.0098 19.4273 24.0235C20.3231 24.9833 20.8933 26.2012 21.0566 27.5039C21.0838 27.7216 21.1896 27.922 21.354 28.0673C21.5184 28.2127 21.7302 28.293 21.9497 28.2933C21.9873 28.2931 22.0249 28.2907 22.0623 28.2861C22.2994 28.2564 22.515 28.1338 22.6616 27.9452C22.8083 27.7566 22.8741 27.5175 22.8446 27.2804C22.642 25.6273 21.9298 24.0783 20.807 22.8484C21.5809 22.0714 22.2155 21.1673 22.6832 20.1754C23.4815 20.1224 24.2297 19.7681 24.7765 19.1841C25.3233 18.6002 25.6278 17.8303 25.6283 17.0303V17.0303ZM22.2471 18.3577C22.0369 18.3192 21.8198 18.3572 21.6352 18.4648C21.4506 18.5724 21.3105 18.7425 21.2404 18.9444C20.415 21.2857 17.6348 23.7892 14.8141 23.7892C11.9934 23.7892 9.21322 21.2839 8.38774 18.9426C8.31748 18.7409 8.17742 18.5708 7.99284 18.4633C7.80825 18.3557 7.5913 18.3176 7.38111 18.3559C7.30622 18.3706 7.23029 18.3794 7.15402 18.3821C6.81948 18.3781 6.49832 18.2502 6.25264 18.0231C6.00695 17.796 5.8542 17.4859 5.82394 17.1527C5.79367 16.8195 5.88803 16.4869 6.08877 16.2193C6.28951 15.9517 6.58236 15.768 6.9107 15.7038C7.1023 15.669 7.2775 15.5732 7.41007 15.4305C7.54263 15.2879 7.62543 15.1061 7.64606 14.9125C7.76642 13.7602 8.16407 12.6541 8.80501 11.689C9.44595 10.7238 10.3111 9.9282 11.3265 9.37023C11.1789 9.94347 11.1721 10.5439 11.3067 11.1203C11.4899 11.8826 11.9167 12.5644 12.5223 13.0624C13.1279 13.5603 13.8793 13.8472 14.6626 13.8796C15.446 13.912 16.2185 13.6881 16.8632 13.2419C17.5078 12.7957 17.9894 12.1515 18.235 11.4069C18.275 11.2746 18.2834 11.1348 18.2593 10.9987C18.2353 10.8626 18.1796 10.7341 18.0967 10.6236C18.0137 10.513 17.906 10.4235 17.782 10.3623C17.6581 10.3012 17.5216 10.27 17.3834 10.2714H17.2473C17.0815 10.2768 16.9218 10.3349 16.7912 10.4371C16.6607 10.5393 16.566 10.6805 16.5209 10.8401C16.4162 11.1551 16.2264 11.4351 15.9726 11.6492C15.7188 11.8632 15.4108 12.003 15.0826 12.0531C14.7544 12.1032 14.4187 12.0617 14.1126 11.9331C13.8065 11.8045 13.5418 11.5939 13.3479 11.3244C13.1539 11.055 13.0381 10.7372 13.0133 10.4061C12.9885 10.075 13.0556 9.74345 13.2073 9.4481C13.3589 9.15274 13.5893 8.90501 13.8728 8.73225C14.1563 8.55949 14.4821 8.4684 14.8141 8.46904C16.5947 8.46478 18.3135 9.12141 19.6377 10.3118C20.9619 11.5021 21.7973 13.1415 21.9821 14.9125C22.0028 15.1061 22.0855 15.2879 22.2181 15.4305C22.3507 15.5732 22.5259 15.669 22.7175 15.7038C23.0458 15.768 23.3387 15.9517 23.5394 16.2193C23.7402 16.4869 23.8345 16.8195 23.8042 17.1527C23.774 17.4859 23.6212 17.796 23.3755 18.0231C23.1299 18.2502 22.8087 18.3781 22.4742 18.3821C22.3979 18.38 22.322 18.3718 22.2471 18.3577V18.3577Z" fill="#35B5AB"/>
<path d="M12.5614 18.3823C13.308 18.3823 13.9132 17.7771 13.9132 17.0305C13.9132 16.2839 13.308 15.6787 12.5614 15.6787C11.8148 15.6787 11.2096 16.2839 11.2096 17.0305C11.2096 17.7771 11.8148 18.3823 12.5614 18.3823Z" fill="#35B5AB"/>
<path d="M17.0671 18.3823C17.8136 18.3823 18.4189 17.7771 18.4189 17.0305C18.4189 16.2839 17.8136 15.6787 17.0671 15.6787C16.3205 15.6787 15.7153 16.2839 15.7153 17.0305C15.7153 17.7771 16.3205 18.3823 17.0671 18.3823Z" fill="#35B5AB"/>
</g>
<path d="M44.9184 21.9292C45.8641 21.9292 46.6429 22.7003 46.6429 23.6366C46.6429 24.5729 45.8641 25.344 44.9184 25.344C43.9727 25.344 43.194 24.5729 43.194 23.6366C43.194 22.7003 43.9727 21.9292 44.9184 21.9292Z" fill="#95D7CE"/>
<path d="M34.8508 27.4382C35.6296 27.4382 36.2415 28.0441 36.2415 28.8152C36.2415 29.5863 35.6296 30.1921 34.8508 30.1921C34.072 30.1921 33.4601 29.5863 33.4601 28.8152C33.4601 28.0441 34.072 27.4382 34.8508 27.4382Z" fill="#95D7CE"/>
<path d="M30.6789 23.6378V39.1146H30.4008H28.8988H28.6207V23.6378C28.6207 23.087 29.0657 22.5913 29.6776 22.5913C29.9558 22.5913 30.2339 22.7015 30.4008 22.9218C30.5677 23.087 30.6789 23.3624 30.6789 23.6378Z" fill="#95D7CE"/>
<path d="M32.0695 40.8213V41.9228H27.1748V40.8213C27.1748 39.885 27.9536 39.1689 28.8436 39.1689H30.3456C31.3463 39.1689 32.0695 39.885 32.0695 40.8213Z" fill="#95D7CE"/>
<path d="M47.6441 34.0467C47.9223 34.3221 48.0335 34.6525 48.0335 35.0381C48.0335 35.8092 47.4216 36.415 46.6428 36.415H34.1833C33.7939 36.415 33.4601 36.2498 33.182 36.0295C32.9039 35.7541 32.7926 35.4236 32.7926 35.0381C32.7926 34.267 33.4045 33.6611 34.1833 33.6611H46.699C47.0878 33.6611 47.4216 33.7713 47.6441 34.0467Z" fill="#95D7CE"/>
<path d="M37.6316 44.6779H38.3548V41.924H35.184L34.1833 36.4163H46.6984L45.419 43.5213L44.5845 48.0927H37.6316V44.6779Z" fill="#95D7CE"/>
<path d="M37.6317 44.6782V48.093H36.241H21.6676V44.6782H35.7409H37.6317Z" fill="#95D7CE"/>
<path d="M38.355 41.9241V44.6779H37.6318H35.741H21.6677H20.9446V41.9241H27.2305H32.0696H35.1842H38.355Z" fill="#95D7CE"/>
<path d="M32.0694 42.5842C31.6806 42.5842 31.3462 42.2538 31.3462 41.8682V40.7667C31.3462 40.2159 30.9012 39.7753 30.3449 39.7753C29.9555 39.7753 29.6218 39.4448 29.6218 39.0593C29.6218 38.6737 29.9555 38.3433 30.3449 38.3433C31.68 38.3433 32.7364 39.3897 32.7364 40.7116V41.8131C32.7926 42.2538 32.4588 42.5842 32.0694 42.5842Z" fill="#35B5AB"/>
<path d="M27.2303 42.5846C26.8409 42.5846 26.5071 42.2541 26.5071 41.8686V40.767C26.5071 39.4452 27.564 38.3987 28.8991 38.3987C29.2885 38.3987 29.6223 38.7291 29.6223 39.1147C29.6223 39.5002 29.2885 39.8307 28.8991 39.8307C28.3428 39.8307 27.8978 40.2713 27.8978 40.8221V41.9236C27.8972 42.2541 27.6197 42.5846 27.2303 42.5846Z" fill="#35B5AB"/>
<path d="M30.6785 39.8294H28.5646C28.1753 39.8294 27.8415 39.4989 27.8415 39.1134V23.6366C27.8415 22.7003 28.6203 21.9292 29.566 21.9292C30.011 21.9292 30.456 22.0944 30.7898 22.4249C31.1235 22.7554 31.2904 23.196 31.2904 23.6366V39.1134C31.4017 39.4989 31.0679 39.8294 30.6785 39.8294ZM29.2878 38.4525H30.011V23.6366C30.011 23.5264 29.9553 23.4163 29.8997 23.4163C29.8441 23.3612 29.7328 23.3061 29.6772 23.3061C29.5103 23.3061 29.3434 23.4714 29.3434 23.6366V38.4525H29.2878Z" fill="#35B5AB"/>
<path d="M44.5845 48.808H37.6316C37.2422 48.808 36.9085 48.4775 36.9085 48.092C36.9085 47.7064 37.2422 47.376 37.6316 47.376H44.0283L46.0309 36.2503C46.0865 35.8648 46.4759 35.6445 46.8097 35.6995C47.1985 35.7546 47.4216 36.1402 47.3659 36.4706L45.2521 48.2021C45.1964 48.5326 44.9183 48.808 44.5845 48.808Z" fill="#35B5AB"/>
<path d="M35.1839 42.5842C34.8502 42.5842 34.572 42.3639 34.5164 42.0335L33.4595 36.5257C33.4039 36.1402 33.6264 35.8097 34.0158 35.6995C34.4046 35.6445 34.7389 35.8648 34.8502 36.2503L35.9071 41.7581C35.9627 42.1436 35.7402 42.4741 35.3508 42.5842C35.2957 42.5842 35.2396 42.5842 35.1839 42.5842Z" fill="#35B5AB"/>
<path d="M38.3548 45.3386H37.6316C37.2422 45.3386 36.9084 45.0081 36.9084 44.6226C36.9084 44.237 37.2422 43.9066 37.6316 43.9066V42.5847H21.6675V43.9616C22.0569 43.9616 22.3907 44.2921 22.3907 44.6776C22.3907 45.0632 22.0569 45.3937 21.6675 45.3937H20.9444C20.555 45.3937 20.2212 45.0632 20.2212 44.6776V41.9238C20.2212 41.5382 20.555 41.2078 20.9444 41.2078H38.3548C38.7441 41.2078 39.0779 41.5382 39.0779 41.9238V44.6776C39.0223 45.0081 38.7441 45.3386 38.3548 45.3386Z" fill="#35B5AB"/>
<path d="M37.6318 48.8067H21.6677C21.2783 48.8067 20.9445 48.4762 20.9445 48.0907V44.6208C20.9445 44.2352 21.2783 43.9048 21.6677 43.9048H37.6874C38.0768 43.9048 38.4106 44.2352 38.4106 44.6208V48.0907C38.3549 48.4762 38.0212 48.8067 37.6318 48.8067ZM22.3352 47.4297H36.9642V45.3368H22.3352V47.4297Z" fill="#35B5AB"/>
<path d="M46.6983 37.076H34.1832C33.6269 37.076 33.1262 36.8557 32.6812 36.4702C32.2918 36.0846 32.0693 35.5339 32.0693 34.9831C32.0693 33.8265 33.015 32.8901 34.1832 32.8901H46.6989C47.2552 32.8901 47.7558 33.1104 48.2008 33.496C48.5902 33.8815 48.8127 34.4323 48.8127 34.9831C48.7566 36.1397 47.8109 37.076 46.6983 37.076ZM34.1832 34.3222C33.7938 34.3222 33.46 34.6526 33.46 35.0382C33.46 35.2034 33.5156 35.3686 33.6825 35.5339C33.7938 35.644 34.0163 35.7542 34.1832 35.7542H46.6989C47.0883 35.7542 47.422 35.4237 47.422 35.0382C47.422 34.8729 47.3664 34.7077 47.1995 34.5425C47.0326 34.3772 46.8658 34.3222 46.6989 34.3222H34.1832Z" fill="#35B5AB"/>
<path d="M47.4216 45.173C46.6428 45.173 45.9197 44.8976 45.3634 44.4019L44.974 44.0163L39.3005 38.9492C39.0224 38.6738 38.9668 38.2332 39.2449 37.9578C39.523 37.6824 39.968 37.6273 40.2462 37.9027L46.3091 43.3554C46.6985 43.6859 47.1991 43.8511 47.7554 43.7409C48.5898 43.6308 49.2017 42.9148 49.2017 42.0886C49.2017 41.8683 49.1461 41.648 49.0348 41.4277L48.1448 39.3898C47.9779 39.0594 48.1448 38.6187 48.5342 38.5086C48.8674 38.3434 49.313 38.5086 49.4242 38.8941L50.3143 40.932C50.4811 41.3175 50.5924 41.7031 50.5924 42.1437C50.5924 43.6308 49.4798 44.9527 47.9779 45.173C47.7554 45.173 47.5885 45.173 47.4216 45.173Z" fill="#35B5AB"/>
<path d="M34.8507 30.9066C33.6825 30.9066 32.7368 29.9703 32.7368 28.8137C32.7368 27.657 33.6825 26.7207 34.8507 26.7207C36.0189 26.7207 36.9645 27.657 36.9645 28.8137C36.9645 29.9703 36.0189 30.9066 34.8507 30.9066ZM34.8507 28.1527C34.4613 28.1527 34.1275 28.4832 34.1275 28.8687C34.1275 29.2543 34.4613 29.5847 34.8507 29.5847C35.2401 29.5847 35.5738 29.2543 35.5738 28.8687C35.5733 28.4832 35.2395 28.1527 34.8507 28.1527Z" fill="#35B5AB"/>
<path d="M23.3921 37.0759C22.4464 37.0759 21.6676 36.3049 21.6676 35.3685C21.6676 34.4322 22.4464 33.6611 23.3921 33.6611C24.3378 33.6611 25.1165 34.4322 25.1165 35.3685C25.1165 36.3049 24.3378 37.0759 23.3921 37.0759ZM23.3921 35.0381C23.2252 35.0381 23.0583 35.2033 23.0583 35.3685C23.0583 35.5338 23.2252 35.699 23.3921 35.699C23.559 35.699 23.7258 35.5338 23.7258 35.3685C23.7258 35.2033 23.559 35.0381 23.3921 35.0381Z" fill="#35B5AB"/>
<path d="M44.9183 26.0612C43.5832 26.0612 42.4712 24.9596 42.4712 23.6378C42.4712 22.3159 43.5837 21.2144 44.9183 21.2144C46.2533 21.2144 47.3659 22.3159 47.3659 23.6378C47.3659 24.9596 46.309 26.0612 44.9183 26.0612ZM44.9183 22.6464C44.362 22.6464 43.8613 23.087 43.8613 23.6928C43.8613 24.2987 44.3064 24.7393 44.9183 24.7393C45.5302 24.7393 45.9752 24.2987 45.9752 23.6928C45.9752 23.087 45.5302 22.6464 44.9183 22.6464Z" fill="#35B5AB"/>
</g>
<defs>
<clipPath id="clip0_147_13735">
<rect width="51.2" height="51.2005" fill="white" transform="translate(2.4 2.39966)"/>
</clipPath>
<clipPath id="clip1_147_13735">
<rect width="21.6284" height="21.6284" fill="white" transform="translate(4.00002 6.66675)"/>
</clipPath>
</defs>
</svg>
