<svg width="23" height="23" viewBox="0 0 23 23" fill="none" xmlns="http://www.w3.org/2000/svg">
<path d="M14.8877 4.72369L12.1771 2.01311C11.8029 1.63886 11.1961 1.63886 10.8218 2.01311L8.11126 4.72369C7.737 5.09794 7.737 5.70472 8.11126 6.07897L10.8218 8.78955C11.1961 9.1638 11.8029 9.1638 12.1771 8.78955L14.8877 6.07897C15.2619 5.70472 15.2619 5.09794 14.8877 4.72369Z" stroke="#2E6BFF" stroke-width="1.32353" stroke-linecap="round" stroke-linejoin="round"/>
<path d="M8.78906 10.8223L6.07849 8.11174C5.70423 7.73749 5.09745 7.73749 4.7232 8.11174L2.01262 10.8223C1.63837 11.1966 1.63837 11.8034 2.01262 12.1776L4.7232 14.8882C5.09745 15.2624 5.70423 15.2624 6.07849 14.8882L8.78906 12.1776C9.16331 11.8034 9.16331 11.1966 8.78906 10.8223Z" stroke="#2E6BFF" stroke-width="1.32353" stroke-linecap="round" stroke-linejoin="round"/>
<path d="M20.9863 10.8223L18.2758 8.11174C17.9015 7.73749 17.2947 7.73749 16.9205 8.11174L14.2099 10.8223C13.8356 11.1966 13.8356 11.8034 14.2099 12.1776L16.9205 14.8882C17.2947 15.2624 17.9015 15.2624 18.2758 14.8882L20.9863 12.1776C21.3606 11.8034 21.3606 11.1966 20.9863 10.8223Z" stroke="#2E6BFF" stroke-width="1.32353" stroke-linecap="round" stroke-linejoin="round"/>
<path d="M14.8877 16.9212L12.1771 14.2106C11.8029 13.8364 11.1961 13.8364 10.8218 14.2106L8.11126 16.9212C7.737 17.2954 7.737 17.9022 8.11126 18.2765L10.8218 20.9871C11.1961 21.3613 11.8029 21.3613 12.1771 20.9871L14.8877 18.2765C15.2619 17.9022 15.2619 17.2954 14.8877 16.9212Z" stroke="#2E6BFF" stroke-width="1.32353" stroke-linecap="round" stroke-linejoin="round"/>
</svg>
