<svg width="56" height="56" fill="none" xmlns="http://www.w3.org/2000/svg">
    <path d="M20.898 23.333a1 1 0 0 0 .576-.182l4.773-3.368a1 1 0 0 1 .577-.183h10.51v3.733H27.73L22.4 27.067H10.333a1 1 0 0 1-1-1v-1.734a1 1 0 0 1 1-1h10.565Zm2.027 9.446 5.46-1.988L29.66 34.3l-5.46 1.986a8.4 8.4 0 1 1-1.276-3.51v.003ZM15.867 42a4.667 4.667 0 1 0 0-9.333 4.667 4.667 0 0 0 0 9.333Zm24.266 3.733a8.4 8.4 0 1 1 0-16.799 8.4 8.4 0 0 1 0 16.8Zm0-3.733a4.667 4.667 0 1 0 0-9.334 4.667 4.667 0 0 0 0 9.334ZM13.067 25.2h11.2l4.853-3.235.523-1.953 3.606.968-3.588 13.31-3.4-1.657.22-.821-4.081 2.721-1.867-3.733h-7.466v-5.6Zm22.332-9.991a1 1 0 0 0 .94.658h5.594a1 1 0 0 1 1 1v3.6a1 1 0 0 1-1 1h-2.828a1 1 0 0 0-.94 1.342l3.096 8.506-3.51 1.277-4.046-11.125H33.6v-.284l-2.374-6.525a1 1 0 0 0-.94-.658h-3.153a1 1 0 0 1-1-1v-1.733a1 1 0 0 1 1-1H32.9a1 1 0 0 1 .94.658l1.559 4.284Z" fill="#FF4C59"/>
    <path d="M42.5 37.267a2.5 2.5 0 1 1-5 0 2.5 2.5 0 0 1 5 0ZM18.5 37.267a2.5 2.5 0 1 1-5 0 2.5 2.5 0 0 1 5 0Z" fill="#FFB7BD"/>
</svg>
